<?xml version="1.0" standalone="no"?>
<!DOCTYPE svg PUBLIC "-//W3C//DTD SVG 20010904//EN"
 "http://www.w3.org/TR/2001/REC-SVG-20010904/DTD/svg10.dtd">
<svg version="1.0" xmlns="http://www.w3.org/2000/svg"
 width="1131.000000pt" height="1131.000000pt" viewBox="0 0 1131.000000 1131.000000"
 preserveAspectRatio="xMidYMid meet">
<metadata>
Created by potrace 1.11, written by Peter Selinger 2001-2013
</metadata>
<g transform="translate(0.000000,1131.000000) scale(0.100000,-0.100000)"
fill="#000000" stroke="none">
<path d="M25 5718 c1 -865 2 -1575 3 -1578 1 -3 100 -5 220 -5 202 0 217 1
222 18 3 10 5 430 4 933 l0 915 34 -33 c20 -18 99 -94 176 -169 78 -75 164
-158 192 -185 28 -27 156 -151 285 -275 129 -125 266 -257 304 -294 39 -37
174 -168 300 -290 127 -123 259 -251 295 -285 36 -35 127 -123 203 -196 l138
-134 354 0 355 0 0 1573 0 1573 -222 -1 -223 0 -3 -1039 -2 -1039 -93 91 c-50
50 -120 117 -154 149 -33 32 -161 155 -283 273 -123 118 -253 244 -290 280
-38 36 -164 157 -280 270 -300 289 -343 330 -581 560 -117 113 -235 227 -263
253 -28 27 -87 85 -132 128 l-81 79 -240 0 -240 0 2 -1572z"/>
<path d="M4477 6594 c-1 -1 -29 -5 -62 -8 -386 -40 -688 -183 -945 -446 -170
-174 -262 -347 -316 -595 -14 -66 -13 -310 2 -390 46 -239 148 -429 330 -610
296 -295 658 -440 1099 -439 459 2 870 187 1152 519 64 75 114 155 106 168 -9
15 -23 78 -28 132 -3 28 -7 71 -10 97 -3 25 -8 53 -11 62 -6 14 -86 16 -843
16 l-837 0 0 -187 1 -188 572 0 c314 0 569 -3 566 -8 -9 -15 -120 -81 -198
-118 -77 -36 -190 -72 -265 -83 -19 -3 -46 -8 -60 -11 -38 -8 -259 -9 -310 -1
-129 20 -265 61 -375 115 l-39 19 0 710 -1 711 61 30 c54 27 188 76 239 87
157 34 346 38 485 9 8 -2 30 -6 48 -9 125 -24 309 -113 427 -208 33 -26 67
-48 75 -48 8 0 40 23 70 51 30 27 94 82 142 122 48 40 87 77 88 82 0 13 -134
119 -228 180 -194 125 -438 207 -687 231 -55 5 -245 11 -248 8z"/>
<path d="M8823 6056 c4 -464 7 -588 17 -616 7 -19 -4 -155 -18 -218 -4 -18 -6
-271 -4 -561 l2 -528 200 0 200 0 2 690 3 690 55 -53 c59 -56 436 -421 684
-661 83 -80 216 -209 296 -286 80 -77 200 -193 268 -259 l123 -119 287 0 287
1 3 1229 2 1230 -192 -2 c-106 -1 -196 -2 -200 -2 -5 -1 -9 -347 -10 -770 l-3
-770 -126 122 c-132 128 -548 530 -629 607 -25 25 -116 113 -201 195 -86 83
-256 247 -379 365 -122 118 -232 224 -242 235 -18 19 -33 20 -224 21 l-204 0
3 -540z"/>
<path d="M7229 6486 c-2 -2 -26 -6 -54 -9 -417 -46 -836 -327 -1005 -675 -70
-145 -97 -260 -98 -428 -1 -278 99 -516 304 -719 218 -216 467 -340 782 -391
66 -10 345 -13 412 -3 36 5 81 11 100 14 29 4 64 11 100 20 368 94 714 372
849 683 53 120 72 212 77 357 5 191 -19 310 -97 468 -152 312 -505 573 -879
651 -41 9 -88 19 -105 22 -33 6 -380 15 -386 10z m439 -175 c106 -23 254 -79
325 -122 26 -16 50 -29 53 -29 3 0 43 -29 88 -65 99 -77 196 -178 251 -260 39
-59 101 -193 111 -237 41 -193 37 -342 -12 -492 -106 -323 -442 -601 -821
-680 -100 -21 -159 -27 -269 -27 -162 -1 -290 20 -437 70 -69 24 -225 100
-233 113 -4 5 -6 361 -6 789 0 750 0 781 18 794 68 50 256 123 384 149 116 23
115 23 290 20 124 -1 188 -7 258 -23z"/>
</g>
</svg>
